<svg id="svg" version="1.1" xmlns="http://www.w3.org/2000/svg" xmlns:xlink="http://www.w3.org/1999/xlink" width="400" height="400" viewBox="0, 0, 400,400"><g id="svgg"><path id="path0" d="M63.528 0.884 C 63.388 1.848,62.310 2.295,59.964 2.360 C 57.914 2.417,52.379 3.895,51.610 4.591 C 51.253 4.914,50.167 5.459,49.196 5.801 C 48.226 6.144,47.309 6.624,47.157 6.869 C 47.006 7.114,45.500 7.404,43.810 7.512 C 41.063 7.688,40.702 7.806,40.389 8.629 C 39.905 9.901,35.275 13.488,33.739 13.781 C 33.024 13.917,32.197 14.450,31.830 15.011 C 31.473 15.555,30.911 16.000,30.581 16.000 C 29.807 16.000,16.000 29.819,16.000 30.595 C 16.000 30.917,15.555 31.473,15.011 31.830 C 14.433 32.208,13.919 33.023,13.776 33.788 C 13.486 35.333,9.921 39.898,8.617 40.394 C 7.810 40.700,7.687 41.077,7.514 43.772 C 7.392 45.684,7.094 47.062,6.707 47.502 C 6.370 47.886,5.965 48.650,5.807 49.200 C 5.649 49.750,5.102 50.830,4.591 51.600 C 3.933 52.592,3.424 54.441,2.847 57.939 C 2.037 62.853,1.602 64.000,0.551 64.000 C 0.084 64.000,0.000 79.660,0.000 166.200 C 0.000 255.580,0.073 268.400,0.585 268.400 C 0.935 268.400,1.350 269.081,1.621 270.100 C 1.869 271.035,2.416 272.829,2.836 274.087 C 3.256 275.345,3.601 276.695,3.601 277.087 C 3.602 277.479,3.977 278.413,4.434 279.163 C 4.891 279.912,5.441 281.620,5.656 282.958 C 5.872 284.296,6.306 285.676,6.622 286.024 C 6.938 286.373,7.312 287.508,7.455 288.546 C 7.597 289.585,8.003 290.651,8.357 290.917 C 8.711 291.183,9.312 292.075,9.694 292.900 C 10.075 293.725,10.552 294.400,10.754 294.400 C 10.956 294.400,11.310 294.940,11.540 295.600 C 11.770 296.260,12.202 296.800,12.499 296.800 C 12.796 296.800,13.274 297.448,13.560 298.241 C 13.847 299.033,14.423 300.023,14.841 300.441 C 15.258 300.858,15.600 301.736,15.600 302.390 C 15.600 303.407,15.854 303.696,17.350 304.377 C 18.353 304.834,19.191 305.522,19.313 305.987 C 19.441 306.478,19.857 306.800,20.363 306.800 C 20.937 306.800,21.200 307.055,21.200 307.610 C 21.200 308.106,21.588 308.567,22.200 308.800 C 22.750 309.009,23.200 309.360,23.200 309.580 C 23.200 309.801,23.869 310.570,24.686 311.290 C 25.504 312.011,26.624 313.095,27.175 313.700 C 27.727 314.305,28.498 314.800,28.889 314.800 C 29.280 314.800,29.600 315.074,29.600 315.410 C 29.600 315.745,30.050 316.191,30.600 316.400 C 31.150 316.609,31.600 317.059,31.600 317.400 C 31.600 317.741,32.050 318.191,32.600 318.400 C 33.195 318.626,33.600 319.096,33.600 319.561 C 33.600 320.209,33.980 320.390,35.832 320.621 C 37.393 320.816,38.349 321.186,39.014 321.850 C 39.536 322.373,40.422 322.800,40.982 322.800 C 41.566 322.800,42.000 323.028,42.000 323.336 C 42.000 323.891,43.615 324.800,44.601 324.800 C 44.910 324.800,45.614 325.250,46.164 325.800 C 46.714 326.350,47.597 326.800,48.126 326.800 C 48.908 326.800,49.057 326.970,48.921 327.700 C 48.757 328.580,48.843 328.602,52.853 328.706 C 56.225 328.794,57.074 328.943,57.636 329.547 C 58.620 330.603,62.599 331.024,63.850 330.204 L 64.790 329.588 64.937 233.494 C 65.090 133.159,65.098 132.701,66.720 127.200 C 66.948 126.430,67.353 124.810,67.621 123.600 C 67.889 122.390,68.635 120.349,69.278 119.064 C 69.922 117.779,70.994 115.169,71.662 113.264 C 72.951 109.584,75.106 105.334,77.677 101.400 C 78.540 100.080,79.350 98.496,79.477 97.881 C 79.632 97.130,80.214 96.472,81.245 95.881 C 82.090 95.396,83.001 94.474,83.268 93.830 C 83.883 92.351,92.699 83.645,93.885 83.345 C 94.372 83.222,95.223 82.349,95.775 81.406 C 96.438 80.275,97.158 79.598,97.890 79.416 C 98.500 79.264,100.080 78.463,101.400 77.636 C 105.583 75.016,110.643 72.403,112.738 71.781 C 113.853 71.450,116.297 70.465,118.170 69.592 C 120.042 68.718,122.345 67.827,123.287 67.611 C 124.229 67.395,125.810 67.017,126.800 66.772 C 133.674 65.067,132.027 65.095,233.294 64.938 L 329.589 64.789 330.218 63.828 C 331.055 62.552,330.632 58.208,329.601 57.485 C 328.968 57.042,328.490 53.912,328.416 49.723 C 328.404 49.082,328.197 48.885,327.644 48.992 C 327.081 49.100,326.829 48.846,326.660 47.999 C 326.535 47.373,326.089 46.532,325.669 46.131 C 325.250 45.729,324.684 44.712,324.413 43.872 C 324.141 43.032,323.685 42.254,323.399 42.144 C 323.113 42.034,322.764 41.332,322.623 40.584 C 322.483 39.835,322.010 38.972,321.572 38.665 C 321.027 38.283,320.698 37.459,320.532 36.054 C 320.398 34.924,320.148 34.000,319.977 34.000 C 319.493 34.000,316.587 31.084,316.290 30.300 C 316.144 29.915,315.769 29.600,315.456 29.600 C 315.143 29.600,314.777 29.162,314.642 28.627 C 314.508 28.091,314.048 27.542,313.620 27.406 C 313.191 27.270,312.716 26.764,312.562 26.281 C 312.225 25.220,308.092 21.200,307.337 21.200 C 307.042 21.200,306.800 20.943,306.800 20.629 C 306.800 20.315,306.389 19.730,305.887 19.329 C 305.384 18.928,304.667 17.949,304.293 17.154 C 303.709 15.911,303.378 15.676,301.949 15.484 C 301.034 15.361,300.176 15.094,300.042 14.890 C 299.909 14.686,299.035 14.040,298.100 13.455 C 297.165 12.869,296.400 12.212,296.400 11.995 C 296.400 11.778,296.065 11.600,295.655 11.600 C 294.948 11.600,292.742 10.112,291.000 8.459 C 290.560 8.042,289.422 7.584,288.472 7.441 C 287.521 7.298,286.351 6.933,285.872 6.629 C 285.392 6.325,284.190 5.954,283.200 5.804 C 282.210 5.655,280.680 5.159,279.800 4.704 C 278.920 4.248,277.300 3.643,276.200 3.358 C 269.677 1.669,269.088 1.458,268.899 0.737 C 268.713 0.023,265.459 0.000,166.181 0.000 L 63.656 0.000 63.528 0.884 M39.370 325.878 C 39.429 326.275,39.609 326.570,39.771 326.533 C 40.379 326.396,40.402 326.100,39.842 325.635 C 39.372 325.245,39.284 325.290,39.370 325.878 M43.478 327.481 C 43.371 327.656,43.526 328.023,43.821 328.296 C 44.116 328.569,44.455 328.634,44.574 328.441 C 44.694 328.248,44.539 327.882,44.231 327.626 C 43.923 327.370,43.584 327.305,43.478 327.481 " stroke="none" fill="#044cfa" fill-rule="evenodd"></path><path id="path1" d="M331.930 69.742 C 331.299 71.037,331.301 71.158,331.976 71.882 C 333.115 73.105,333.600 74.246,333.600 75.703 C 333.600 77.268,332.493 85.108,332.146 86.000 C 332.017 86.330,331.838 87.590,331.747 88.800 C 331.656 90.010,331.417 91.630,331.215 92.400 C 331.013 93.170,330.633 94.923,330.370 96.296 C 330.108 97.668,329.662 98.983,329.379 99.217 C 329.097 99.451,328.557 101.358,328.180 103.454 C 327.689 106.181,327.225 107.585,326.547 108.390 C 326.026 109.009,325.599 109.760,325.597 110.058 C 325.596 110.356,325.231 111.140,324.786 111.800 C 324.342 112.460,323.616 113.803,323.174 114.785 C 322.731 115.767,322.092 116.878,321.752 117.253 C 321.412 117.628,320.615 119.033,319.981 120.375 C 319.346 121.717,318.539 122.925,318.187 123.060 C 317.835 123.195,316.987 124.299,316.302 125.513 C 315.616 126.727,314.550 128.008,313.931 128.360 C 313.312 128.712,312.804 129.199,312.803 129.442 C 312.798 130.168,307.090 135.653,305.888 136.086 C 305.276 136.306,304.506 137.008,304.176 137.646 C 303.847 138.283,302.817 139.281,301.889 139.864 C 300.960 140.447,299.518 141.504,298.685 142.214 C 297.851 142.923,296.321 143.824,295.285 144.216 C 294.248 144.609,292.843 145.350,292.162 145.865 C 291.481 146.379,290.668 146.800,290.355 146.800 C 290.042 146.800,289.141 147.238,288.353 147.773 C 286.162 149.262,280.246 151.514,276.637 152.233 C 274.857 152.587,272.915 153.134,272.323 153.448 C 269.025 155.194,265.008 155.324,209.694 155.471 C 158.936 155.607,157.164 155.636,156.437 156.363 C 154.798 158.002,154.762 159.278,154.823 212.400 C 154.885 265.230,154.741 270.728,153.272 271.832 C 152.912 272.103,152.497 273.813,152.158 276.431 C 151.726 279.773,151.340 281.130,150.209 283.288 C 149.434 284.768,148.800 286.155,148.800 286.371 C 148.800 286.588,148.350 287.428,147.800 288.238 C 147.250 289.049,146.800 290.020,146.800 290.397 C 146.800 290.775,146.350 291.569,145.800 292.162 C 145.250 292.756,144.798 293.457,144.795 293.721 C 144.781 295.069,140.676 300.956,137.747 303.829 C 137.058 304.504,136.221 305.584,135.886 306.229 C 135.251 307.453,129.927 312.798,129.339 312.803 C 129.153 312.804,128.712 313.312,128.360 313.931 C 128.008 314.550,126.727 315.616,125.513 316.302 C 124.299 316.987,123.195 317.835,123.060 318.187 C 122.925 318.539,121.717 319.346,120.375 319.981 C 119.033 320.615,117.635 321.394,117.268 321.711 C 116.524 322.354,110.099 325.600,109.571 325.600 C 109.387 325.600,108.609 326.025,107.843 326.545 C 107.077 327.065,105.224 327.793,103.725 328.163 C 102.226 328.533,99.708 329.367,98.128 330.018 C 96.518 330.680,94.521 331.200,93.585 331.200 C 92.666 331.200,90.359 331.455,88.457 331.767 C 80.038 333.147,78.902 333.318,77.230 333.452 C 75.419 333.596,72.410 332.996,72.387 332.485 C 72.338 331.382,71.275 330.808,70.259 331.336 C 69.683 331.634,69.329 331.996,69.473 332.139 C 69.616 332.283,69.433 332.400,69.067 332.400 C 68.293 332.400,68.202 333.432,68.832 335.074 C 69.070 335.693,69.504 337.671,69.797 339.468 C 70.131 341.522,70.651 343.172,71.196 343.909 C 71.921 344.890,72.060 345.606,72.042 348.284 L 72.022 351.486 73.397 352.226 C 74.718 352.938,75.038 353.449,75.942 356.291 C 76.168 357.002,76.551 357.812,76.793 358.091 C 77.733 359.175,80.000 363.000,80.000 363.501 C 80.000 364.629,81.329 366.336,85.577 370.660 C 86.689 371.794,87.600 372.912,87.600 373.147 C 87.600 373.709,89.852 376.000,90.406 376.000 C 90.644 376.000,91.235 376.408,91.719 376.908 C 92.204 377.407,93.269 378.312,94.087 378.918 C 95.058 379.639,95.718 380.539,95.987 381.511 C 96.590 383.688,96.801 383.869,99.000 384.090 C 101.199 384.310,103.836 385.805,110.283 390.487 C 111.845 391.622,112.755 392.000,113.923 392.000 C 114.816 392.000,116.283 392.427,117.362 393.000 C 118.396 393.550,119.908 394.006,120.721 394.014 C 122.623 394.032,127.049 394.980,127.699 395.508 C 129.962 397.347,158.096 397.110,161.572 395.223 C 162.106 394.933,163.996 394.535,165.772 394.340 C 168.009 394.094,169.356 393.724,170.161 393.135 C 171.005 392.518,171.912 392.286,173.478 392.286 C 175.096 392.286,175.724 392.116,175.997 391.606 C 176.197 391.233,177.376 390.314,178.618 389.564 C 179.859 388.814,181.353 387.828,181.937 387.373 C 182.522 386.918,183.585 386.311,184.300 386.025 C 185.015 385.738,185.600 385.353,185.600 385.170 C 185.600 384.763,188.218 384.005,189.638 384.002 C 190.885 384.000,192.000 382.879,192.000 381.629 C 192.000 380.792,192.494 380.229,196.009 377.064 C 196.563 376.565,197.328 376.036,197.709 375.890 C 198.089 375.745,198.400 375.452,198.400 375.240 C 198.400 375.027,198.760 374.740,199.200 374.600 C 199.640 374.460,200.002 374.133,200.004 373.873 C 200.010 373.257,202.068 370.766,204.672 368.223 C 205.812 367.110,207.342 365.063,208.072 363.673 C 208.803 362.283,209.746 360.483,210.169 359.673 C 210.592 358.863,211.160 358.065,211.432 357.901 C 211.703 357.736,212.160 356.687,212.447 355.568 C 212.942 353.636,214.366 352.000,215.554 352.000 C 216.156 352.000,216.541 350.207,216.252 348.758 C 215.954 347.270,216.639 344.020,217.373 343.432 C 217.704 343.167,218.008 341.729,218.159 339.720 C 218.294 337.917,218.612 335.937,218.867 335.320 C 219.121 334.704,219.300 334.065,219.265 333.900 C 219.229 333.735,219.350 333.600,219.533 333.600 C 220.107 333.600,220.105 333.762,220.248 279.000 C 220.400 220.308,220.303 223.426,222.031 221.770 L 223.252 220.600 277.526 220.389 C 330.192 220.183,333.435 220.114,334.012 219.181 C 334.160 218.941,336.174 218.609,338.486 218.444 C 341.911 218.199,342.897 217.982,343.800 217.272 C 344.708 216.557,345.434 216.400,347.821 216.400 C 351.036 216.400,352.000 216.170,352.000 215.405 C 352.000 214.742,354.248 213.054,355.868 212.498 C 356.565 212.259,357.510 211.690,357.968 211.232 C 358.426 210.774,359.154 210.400,359.586 210.400 C 360.018 210.400,360.551 210.065,360.770 209.657 C 360.989 209.248,361.973 208.687,362.958 208.412 C 363.943 208.136,364.845 207.661,364.962 207.355 C 365.079 207.050,365.406 206.797,365.687 206.794 C 365.969 206.791,367.180 205.802,368.379 204.596 C 369.577 203.391,370.882 202.301,371.279 202.175 C 371.675 202.049,372.000 201.784,372.000 201.586 C 372.000 201.388,372.971 200.493,374.158 199.597 C 375.344 198.701,376.424 197.660,376.556 197.284 C 376.689 196.908,377.203 196.037,377.699 195.348 C 378.195 194.660,378.800 193.760,379.044 193.348 C 379.406 192.737,379.973 192.600,382.152 192.600 L 384.817 192.600 384.565 189.931 C 384.319 187.319,386.335 182.400,387.651 182.400 C 387.837 182.400,388.192 181.590,388.442 180.600 C 388.691 179.610,389.057 178.800,389.254 178.800 C 389.451 178.800,389.907 178.184,390.266 177.431 C 390.625 176.678,391.252 175.975,391.659 175.869 C 392.264 175.711,392.400 175.281,392.400 173.534 C 392.400 172.060,392.694 170.834,393.343 169.597 C 393.887 168.560,394.396 166.709,394.545 165.222 C 394.688 163.804,395.208 161.824,395.702 160.822 C 397.113 157.959,397.102 129.943,395.689 127.296 C 395.176 126.334,394.614 124.287,394.400 122.600 C 394.191 120.955,393.677 118.932,393.258 118.104 C 392.838 117.277,392.366 115.650,392.209 114.490 C 392.051 113.329,391.670 112.127,391.361 111.818 C 391.052 111.510,390.800 111.089,390.800 110.884 C 390.800 110.678,390.305 109.861,389.700 109.067 C 389.095 108.274,388.080 106.764,387.444 105.712 C 386.807 104.661,385.873 103.170,385.366 102.400 C 384.757 101.475,384.403 100.263,384.322 98.826 L 384.200 96.652 382.287 96.164 C 379.742 95.515,378.850 94.666,376.534 90.685 C 376.041 89.837,374.001 88.039,373.505 88.014 C 373.243 88.002,370.606 85.647,367.649 82.785 C 366.311 81.489,364.192 80.000,363.687 80.000 C 363.268 80.000,358.933 77.513,358.092 76.790 C 357.813 76.550,356.589 76.026,355.373 75.624 C 352.835 74.787,353.095 74.980,352.241 73.300 L 351.579 72.000 348.351 72.000 C 345.744 72.000,344.903 71.843,343.978 71.184 C 343.325 70.719,341.061 70.013,338.716 69.542 C 332.104 68.214,332.684 68.197,331.930 69.742 " stroke="none" fill="#24e4a4" fill-rule="evenodd"></path><path id="path2" d="M53.200 0.600 C 53.200 1.080,53.800 1.200,56.200 1.200 C 58.600 1.200,59.200 1.080,59.200 0.600 C 59.200 0.120,58.600 0.000,56.200 0.000 C 53.800 0.000,53.200 0.120,53.200 0.600 M272.400 0.600 C 272.400 1.083,273.022 1.200,275.600 1.200 C 278.178 1.200,278.800 1.083,278.800 0.600 C 278.800 0.117,278.178 0.000,275.600 0.000 C 273.022 0.000,272.400 0.117,272.400 0.600 M48.127 1.780 C 48.167 2.011,47.975 2.155,47.700 2.100 C 47.425 2.045,47.245 2.225,47.300 2.500 C 47.368 2.838,46.718 3.039,45.300 3.121 C 43.385 3.231,43.200 3.326,43.200 4.199 C 43.200 5.057,43.003 5.169,41.300 5.278 C 39.679 5.382,39.381 5.532,39.272 6.300 C 39.159 7.094,38.913 7.200,37.172 7.200 C 35.335 7.200,35.200 7.269,35.200 8.200 C 35.200 8.750,34.975 9.216,34.700 9.234 C 34.425 9.253,33.570 9.298,32.800 9.334 C 31.677 9.387,31.375 9.578,31.272 10.300 C 31.180 10.951,30.876 11.200,30.172 11.200 C 29.402 11.200,29.200 11.408,29.200 12.200 C 29.200 13.005,29.001 13.200,28.182 13.200 C 27.622 13.200,26.727 13.637,26.193 14.171 C 25.659 14.705,24.812 15.200,24.311 15.271 C 23.731 15.353,23.355 15.718,23.275 16.275 C 23.198 16.821,22.821 17.198,22.275 17.275 C 21.730 17.353,21.353 17.730,21.275 18.275 C 21.198 18.821,20.821 19.198,20.275 19.275 C 19.730 19.353,19.353 19.730,19.275 20.275 C 19.198 20.821,18.821 21.198,18.275 21.275 C 17.730 21.353,17.353 21.730,17.275 22.275 C 17.198 22.821,16.821 23.198,16.275 23.275 C 15.718 23.355,15.353 23.731,15.271 24.311 C 15.200 24.812,14.705 25.659,14.171 26.193 C 13.637 26.727,13.200 27.622,13.200 28.182 C 13.200 29.001,13.005 29.200,12.200 29.200 C 11.408 29.200,11.200 29.402,11.200 30.172 C 11.200 30.876,10.951 31.180,10.300 31.272 C 9.537 31.381,9.370 31.704,9.200 33.400 C 9.069 34.707,8.827 35.365,8.500 35.300 C 8.225 35.245,8.045 35.425,8.100 35.700 C 8.155 35.975,8.012 36.167,7.783 36.128 C 7.554 36.088,7.337 36.448,7.302 36.928 C 7.267 37.407,6.791 38.187,6.243 38.661 C 5.485 39.315,5.217 39.985,5.124 41.461 C 5.041 42.749,4.832 43.366,4.500 43.300 C 4.225 43.245,4.045 43.425,4.100 43.700 C 4.155 43.975,4.011 44.167,3.780 44.127 C 3.549 44.086,3.316 44.701,3.263 45.492 C 3.150 47.171,2.895 47.706,2.362 47.377 C 2.152 47.247,2.030 47.379,2.090 47.670 C 2.151 47.962,2.000 48.163,1.757 48.119 C 1.485 48.069,1.330 48.675,1.357 49.679 C 1.412 51.789,3.200 52.515,3.200 50.427 C 3.200 49.657,3.541 48.990,4.200 48.471 C 4.756 48.034,5.202 47.266,5.205 46.742 C 5.215 45.095,5.651 44.080,6.437 43.874 C 7.073 43.708,7.200 43.302,7.200 41.437 C 7.200 39.318,7.253 39.200,8.200 39.200 C 9.072 39.200,9.200 39.025,9.200 37.829 C 9.200 36.559,10.018 35.200,10.782 35.200 C 10.961 35.200,11.204 34.827,11.324 34.370 C 11.443 33.914,11.904 33.446,12.348 33.330 C 12.792 33.213,13.210 32.732,13.278 32.259 C 13.354 31.721,13.737 31.352,14.300 31.272 C 15.094 31.159,15.200 30.913,15.200 29.172 C 15.200 27.335,15.269 27.200,16.200 27.200 C 17.000 27.200,17.200 27.000,17.200 26.200 C 17.200 25.400,17.400 25.200,18.200 25.200 C 18.937 25.200,19.200 24.987,19.200 24.390 C 19.200 23.815,19.539 23.512,20.365 23.347 C 21.043 23.211,21.612 22.798,21.727 22.357 C 21.836 21.941,22.198 21.600,22.531 21.600 C 22.879 21.600,23.249 21.088,23.401 20.397 C 23.546 19.735,24.010 19.009,24.433 18.783 C 24.855 18.557,25.200 18.108,25.200 17.786 C 25.200 17.432,25.585 17.200,26.172 17.200 C 26.876 17.200,27.180 16.951,27.272 16.300 C 27.381 15.534,27.679 15.382,29.275 15.279 C 30.856 15.177,31.169 15.021,31.275 14.279 C 31.352 13.736,31.728 13.353,32.259 13.278 C 32.732 13.210,33.213 12.792,33.330 12.348 C 33.446 11.904,33.914 11.443,34.370 11.324 C 34.827 11.204,35.200 10.787,35.200 10.396 C 35.200 9.551,35.973 9.200,37.833 9.200 C 39.024 9.200,39.200 9.072,39.200 8.200 C 39.200 7.244,39.307 7.200,41.600 7.200 C 43.441 7.200,44.000 7.064,44.000 6.614 C 44.000 5.869,45.237 5.200,46.616 5.200 C 47.280 5.200,47.983 4.821,48.471 4.200 C 48.978 3.556,49.659 3.200,50.386 3.200 C 51.648 3.200,52.237 2.294,51.417 1.614 C 50.755 1.065,48.026 1.203,48.127 1.780 M280.246 1.825 C 279.803 2.980,279.983 3.200,281.371 3.200 C 282.659 3.200,284.000 4.020,284.000 4.809 C 284.000 5.002,285.035 5.214,286.300 5.280 C 287.774 5.357,288.618 5.579,288.650 5.900 C 288.678 6.175,288.723 6.580,288.750 6.800 C 288.778 7.020,289.713 7.200,290.828 7.200 C 293.649 7.200,293.716 5.481,290.902 5.277 C 289.465 5.173,289.165 4.998,288.949 4.139 C 288.760 3.387,288.606 3.263,288.353 3.662 C 288.100 4.061,288.011 4.071,288.006 3.700 C 288.002 3.377,287.380 3.200,286.252 3.200 C 284.692 3.200,284.509 3.103,284.552 2.300 C 284.614 1.132,280.678 0.698,280.246 1.825 M293.450 7.814 C 293.142 8.615,293.764 9.131,295.203 9.267 C 296.298 9.371,296.628 9.595,296.728 10.300 C 296.820 10.951,297.124 11.200,297.828 11.200 C 298.598 11.200,298.800 11.408,298.800 12.200 C 298.800 12.925,299.015 13.200,299.581 13.200 C 300.752 13.200,302.400 14.056,302.400 14.664 C 302.400 14.993,302.864 15.200,303.600 15.200 C 304.613 15.200,304.800 15.356,304.800 16.200 C 304.800 17.000,305.000 17.200,305.800 17.200 C 306.600 17.200,306.800 17.400,306.800 18.200 C 306.800 19.000,307.000 19.200,307.800 19.200 C 308.600 19.200,308.800 19.400,308.800 20.200 C 308.800 21.000,309.000 21.200,309.800 21.200 C 310.600 21.200,310.800 21.400,310.800 22.200 C 310.800 22.750,310.935 23.179,311.100 23.153 C 312.260 22.969,312.800 23.287,312.800 24.153 C 312.800 25.054,314.027 25.839,314.577 25.290 C 315.157 24.710,314.727 22.694,313.848 21.880 C 313.325 21.395,312.828 20.638,312.744 20.199 C 312.656 19.734,312.212 19.346,311.685 19.271 C 311.186 19.200,310.341 18.705,309.807 18.171 C 309.273 17.637,308.391 17.200,307.846 17.200 C 307.124 17.200,306.821 16.957,306.728 16.300 C 306.646 15.722,306.278 15.354,305.700 15.272 C 305.057 15.181,304.800 14.875,304.800 14.200 C 304.800 13.525,304.543 13.219,303.900 13.128 C 303.322 13.046,302.954 12.678,302.872 12.100 C 302.782 11.463,302.474 11.200,301.821 11.200 C 301.313 11.200,300.643 10.817,300.333 10.349 C 300.022 9.882,299.325 9.455,298.784 9.400 C 298.243 9.346,297.575 9.279,297.300 9.251 C 297.025 9.223,296.800 8.743,296.800 8.184 C 296.800 7.087,293.854 6.761,293.450 7.814 M314.800 26.172 C 314.800 26.938,315.007 27.200,315.610 27.200 C 316.190 27.200,316.488 27.541,316.660 28.400 C 316.824 29.221,317.137 29.600,317.650 29.600 C 318.123 29.600,318.400 29.884,318.400 30.368 C 318.400 30.897,318.775 31.219,319.600 31.400 C 320.769 31.657,320.800 31.726,320.800 34.032 C 320.800 36.089,320.900 36.400,321.557 36.400 C 322.348 36.400,322.800 37.136,322.800 38.425 C 322.800 38.902,323.172 39.278,323.800 39.436 C 324.567 39.628,324.800 39.946,324.800 40.801 C 324.800 42.020,325.919 42.770,326.461 41.914 C 326.916 41.195,326.726 39.255,326.218 39.440 C 325.378 39.745,324.838 38.937,324.715 37.189 C 324.610 35.713,324.449 35.400,323.794 35.400 C 323.149 35.400,322.962 35.062,322.800 33.600 C 322.647 32.226,322.387 31.706,321.700 31.405 C 321.148 31.163,320.800 30.660,320.800 30.105 C 320.800 29.406,320.572 29.200,319.800 29.200 C 318.995 29.200,318.800 29.001,318.800 28.182 C 318.800 27.600,318.586 27.193,318.300 27.230 C 317.206 27.372,316.850 27.162,316.728 26.300 C 316.532 24.919,314.800 24.804,314.800 26.172 M326.800 45.000 C 326.800 46.712,328.303 47.901,328.444 46.300 C 328.723 43.116,328.742 43.200,327.753 43.200 C 326.890 43.200,326.800 43.370,326.800 45.000 M328.800 50.915 C 328.800 54.189,328.955 54.559,330.072 53.961 C 331.254 53.329,331.019 49.637,329.735 48.668 L 328.800 47.963 328.800 50.915 M0.000 56.200 C 0.000 58.600,0.120 59.200,0.600 59.200 C 1.080 59.200,1.200 58.600,1.200 56.200 C 1.200 53.800,1.080 53.200,0.600 53.200 C 0.120 53.200,0.000 53.800,0.000 56.200 M330.800 58.157 C 330.800 60.921,330.861 61.128,331.734 61.348 C 332.747 61.602,332.692 64.760,331.640 66.725 C 330.982 67.955,331.333 68.093,338.916 69.594 C 341.126 70.031,343.331 70.724,343.978 71.184 C 344.903 71.843,345.744 72.000,348.351 72.000 L 351.579 72.000 352.241 73.300 C 353.095 74.980,352.835 74.787,355.373 75.624 C 356.589 76.026,357.813 76.550,358.092 76.790 C 358.933 77.513,363.268 80.000,363.687 80.000 C 364.192 80.000,366.311 81.489,367.649 82.785 C 370.606 85.647,373.243 88.002,373.505 88.014 C 374.001 88.039,376.041 89.837,376.534 90.685 C 378.850 94.666,379.742 95.515,382.287 96.164 L 384.200 96.652 384.322 98.826 C 384.403 100.263,384.757 101.475,385.366 102.400 C 385.873 103.170,386.807 104.661,387.444 105.712 C 388.080 106.764,389.095 108.274,389.700 109.067 C 390.305 109.861,390.800 110.678,390.800 110.884 C 390.800 111.089,391.052 111.510,391.361 111.818 C 391.670 112.127,392.051 113.329,392.209 114.490 C 392.366 115.650,392.838 117.277,393.258 118.104 C 393.677 118.932,394.191 120.955,394.400 122.600 C 394.614 124.287,395.176 126.334,395.689 127.296 C 397.102 129.943,397.113 157.959,395.702 160.822 C 395.208 161.824,394.688 163.804,394.545 165.222 C 394.396 166.709,393.887 168.560,393.343 169.597 C 392.694 170.834,392.400 172.060,392.400 173.534 C 392.400 175.281,392.264 175.711,391.659 175.869 C 391.252 175.975,390.625 176.678,390.266 177.431 C 389.907 178.184,389.451 178.800,389.254 178.800 C 389.057 178.800,388.691 179.610,388.442 180.600 C 388.192 181.590,387.837 182.400,387.651 182.400 C 386.698 182.400,384.364 187.214,384.456 188.991 C 384.573 191.257,386.800 191.900,386.800 189.668 C 386.800 188.752,386.971 188.543,387.700 188.568 C 388.488 188.596,388.612 188.380,388.699 186.834 C 388.812 184.810,388.830 184.778,389.927 184.696 C 390.377 184.662,390.736 184.536,390.725 184.417 C 390.504 181.981,390.855 180.800,391.800 180.800 C 392.733 180.800,392.800 180.667,392.800 178.800 C 392.800 176.933,392.867 176.800,393.800 176.800 C 394.731 176.800,394.800 176.665,394.800 174.828 C 394.800 173.087,394.906 172.841,395.700 172.728 C 396.526 172.611,396.610 172.361,396.718 169.700 C 396.782 168.105,397.007 166.778,397.218 166.750 C 397.428 166.722,397.825 166.678,398.100 166.650 C 398.675 166.593,398.683 166.543,398.750 162.800 C 398.789 160.600,398.929 160.000,399.400 160.000 C 399.923 160.000,400.000 158.022,400.000 144.600 C 400.000 131.321,399.919 129.200,399.412 129.200 C 398.933 129.200,398.804 128.292,398.712 124.300 C 398.631 120.740,398.463 119.386,398.100 119.350 C 397.825 119.322,397.420 119.278,397.200 119.250 C 396.980 119.222,396.800 118.292,396.800 117.182 C 396.800 115.575,396.601 114.964,395.823 114.187 C 395.158 113.522,394.807 112.666,394.723 111.505 C 394.628 110.187,394.396 109.710,393.700 109.405 C 392.857 109.035,392.514 107.670,392.770 105.700 C 392.807 105.414,392.400 105.200,391.818 105.200 C 390.999 105.200,390.800 105.005,390.800 104.200 C 390.800 103.400,390.600 103.200,389.800 103.200 C 388.795 103.200,388.530 102.344,388.779 99.900 C 388.830 99.401,388.563 99.200,387.848 99.200 C 386.955 99.200,386.833 99.015,386.723 97.500 C 386.629 96.201,386.393 95.709,385.722 95.415 C 385.239 95.203,384.741 94.618,384.614 94.115 C 384.473 93.551,384.084 93.200,383.600 93.200 C 383.097 93.200,382.725 92.842,382.564 92.200 C 382.411 91.591,382.028 91.200,381.584 91.200 C 381.133 91.200,380.807 90.857,380.728 90.300 C 380.647 89.730,380.279 89.354,379.725 89.275 C 379.179 89.198,378.802 88.821,378.725 88.275 C 378.647 87.730,378.270 87.353,377.725 87.275 C 377.179 87.198,376.802 86.821,376.725 86.275 C 376.646 85.721,376.270 85.353,375.700 85.272 C 374.915 85.161,374.587 84.548,374.753 83.500 C 374.779 83.335,374.350 83.200,373.800 83.200 C 373.000 83.200,372.800 83.000,372.800 82.200 C 372.800 81.400,372.600 81.200,371.800 81.200 C 371.000 81.200,370.800 81.000,370.800 80.200 C 370.800 79.428,370.594 79.200,369.895 79.200 C 369.340 79.200,368.837 78.852,368.595 78.300 C 368.290 77.605,367.813 77.372,366.500 77.277 C 364.998 77.168,364.800 77.040,364.800 76.177 C 364.800 75.271,364.654 75.200,362.800 75.200 C 360.933 75.200,360.800 75.133,360.800 74.200 C 360.800 73.446,360.590 73.200,359.946 73.200 C 359.476 73.200,358.675 72.750,358.165 72.200 C 357.573 71.561,356.804 71.200,356.037 71.200 C 355.290 71.200,354.459 70.823,353.836 70.200 C 353.038 69.401,352.436 69.200,350.846 69.200 C 349.086 69.200,348.841 69.096,348.728 68.300 C 348.611 67.479,348.335 67.382,345.600 67.200 C 342.933 67.022,342.600 66.911,342.600 66.200 C 342.600 65.336,342.524 65.315,339.128 65.246 C 337.093 65.205,336.842 65.106,336.728 64.300 C 336.646 63.722,336.278 63.354,335.700 63.272 C 334.888 63.157,334.616 62.763,334.753 61.900 C 334.779 61.735,334.665 61.619,334.500 61.643 C 332.951 61.867,332.564 61.150,332.629 58.175 C 332.693 55.294,332.665 55.200,331.747 55.200 C 330.836 55.200,330.800 55.313,330.800 58.157 M379.892 192.677 C 379.503 192.779,378.841 193.535,378.422 194.358 C 378.002 195.180,377.375 196.089,377.029 196.376 C 376.683 196.663,376.400 197.124,376.400 197.401 C 376.400 197.678,375.410 198.651,374.200 199.565 C 372.990 200.478,372.000 201.388,372.000 201.586 C 372.000 201.784,371.675 202.049,371.279 202.175 C 370.882 202.301,369.577 203.391,368.379 204.596 C 367.180 205.802,365.969 206.791,365.687 206.794 C 365.406 206.797,365.079 207.050,364.962 207.355 C 364.845 207.661,363.943 208.136,362.958 208.412 C 361.973 208.687,360.989 209.248,360.770 209.657 C 360.551 210.065,360.018 210.400,359.586 210.400 C 359.154 210.400,358.426 210.774,357.968 211.232 C 357.510 211.690,356.565 212.259,355.868 212.498 C 354.248 213.054,352.000 214.742,352.000 215.405 C 352.000 216.170,351.036 216.400,347.821 216.400 C 345.434 216.400,344.708 216.557,343.800 217.272 C 342.897 217.982,341.911 218.199,338.486 218.444 C 336.174 218.609,334.160 218.941,334.012 219.181 C 333.435 220.114,330.192 220.183,277.526 220.389 L 223.252 220.600 222.031 221.770 C 220.303 223.426,220.400 220.308,220.248 279.000 C 220.105 333.762,220.107 333.600,219.533 333.600 C 219.350 333.600,219.229 333.735,219.265 333.900 C 219.300 334.065,219.121 334.704,218.867 335.320 C 218.612 335.937,218.294 337.917,218.159 339.720 C 218.008 341.729,217.704 343.167,217.373 343.432 C 216.639 344.020,215.954 347.270,216.252 348.758 C 216.541 350.207,216.156 352.000,215.554 352.000 C 214.366 352.000,212.942 353.636,212.447 355.568 C 212.160 356.687,211.703 357.736,211.432 357.901 C 211.160 358.065,210.592 358.863,210.169 359.673 C 209.746 360.483,208.803 362.283,208.072 363.673 C 207.342 365.063,205.812 367.110,204.672 368.223 C 202.068 370.766,200.010 373.257,200.004 373.873 C 200.002 374.133,199.657 374.455,199.237 374.588 C 198.817 374.721,198.373 375.094,198.250 375.415 C 198.126 375.737,197.832 376.000,197.597 376.000 C 197.361 376.000,196.680 376.444,196.084 376.986 C 195.488 377.529,194.325 378.591,193.500 379.346 C 192.550 380.216,192.000 381.079,192.000 381.698 C 192.000 382.911,190.852 383.999,189.569 384.002 C 188.205 384.005,185.600 384.772,185.600 385.170 C 185.600 385.353,185.015 385.738,184.300 386.025 C 183.585 386.311,182.522 386.918,181.937 387.373 C 181.353 387.828,179.859 388.814,178.618 389.564 C 177.376 390.314,176.197 391.233,175.997 391.606 C 175.724 392.116,175.096 392.286,173.478 392.286 C 171.912 392.286,171.005 392.518,170.161 393.135 C 169.356 393.724,168.009 394.094,165.772 394.340 C 163.996 394.535,162.106 394.933,161.572 395.223 C 158.096 397.110,129.962 397.347,127.699 395.508 C 127.049 394.980,122.623 394.032,120.721 394.014 C 119.908 394.006,118.396 393.550,117.362 393.000 C 116.283 392.427,114.816 392.000,113.923 392.000 C 112.755 392.000,111.845 391.622,110.283 390.487 C 103.836 385.805,101.199 384.310,99.000 384.090 C 96.801 383.869,96.590 383.688,95.987 381.511 C 95.718 380.539,95.058 379.639,94.087 378.918 C 93.269 378.312,92.204 377.407,91.719 376.908 C 91.235 376.408,90.644 376.000,90.406 376.000 C 89.852 376.000,87.600 373.709,87.600 373.147 C 87.600 372.912,86.689 371.794,85.577 370.660 C 81.329 366.336,80.000 364.629,80.000 363.501 C 80.000 363.000,77.733 359.175,76.793 358.091 C 76.551 357.812,76.168 357.002,75.942 356.291 C 75.038 353.449,74.718 352.938,73.397 352.226 L 72.022 351.486 72.042 348.284 C 72.060 345.606,71.921 344.890,71.196 343.909 C 70.651 343.172,70.131 341.522,69.797 339.468 C 69.504 337.671,69.070 335.693,68.832 335.074 C 68.594 334.455,68.397 333.465,68.394 332.874 C 68.383 330.955,67.887 330.637,66.358 331.569 C 65.549 332.062,64.313 332.398,63.300 332.399 C 61.727 332.400,61.387 332.148,61.553 331.100 C 61.579 330.935,60.199 330.800,58.487 330.800 C 55.442 330.800,55.373 330.822,55.290 331.817 C 55.239 332.432,55.402 332.808,55.703 332.769 C 58.767 332.373,61.200 332.837,61.200 333.818 C 61.200 334.400,61.414 334.807,61.700 334.770 C 62.794 334.628,63.150 334.838,63.272 335.700 C 63.354 336.278,63.722 336.646,64.300 336.728 C 65.134 336.846,65.200 337.058,65.200 339.628 C 65.200 341.176,65.377 342.422,65.600 342.450 C 65.820 342.478,66.225 342.523,66.500 342.550 C 66.831 342.583,67.068 343.613,67.200 345.600 C 67.382 348.335,67.479 348.611,68.300 348.728 C 69.094 348.841,69.200 349.087,69.200 350.828 C 69.200 352.665,69.269 352.800,70.200 352.800 C 71.138 352.800,71.200 352.929,71.200 354.867 C 71.200 356.003,71.314 356.819,71.453 356.680 C 71.923 356.210,73.200 358.317,73.200 359.563 C 73.200 360.616,73.349 360.800,74.200 360.800 C 75.135 360.800,75.200 360.932,75.200 362.825 C 75.200 364.696,75.269 364.841,76.100 364.725 C 76.805 364.627,77.024 364.817,77.112 365.600 C 77.347 367.702,77.628 368.355,78.401 368.600 C 78.911 368.762,79.200 369.206,79.200 369.827 C 79.200 370.598,79.407 370.800,80.200 370.800 C 81.000 370.800,81.200 371.000,81.200 371.800 C 81.200 372.600,81.400 372.800,82.200 372.800 C 83.000 372.800,83.200 373.000,83.200 373.800 C 83.200 374.350,83.335 374.779,83.500 374.753 C 84.548 374.587,85.161 374.915,85.272 375.700 C 85.354 376.278,85.722 376.646,86.300 376.728 C 86.951 376.820,87.200 377.124,87.200 377.828 C 87.200 378.591,87.409 378.800,88.172 378.800 C 88.876 378.800,89.180 379.049,89.272 379.700 C 89.354 380.278,89.722 380.646,90.300 380.728 C 90.951 380.820,91.200 381.124,91.200 381.828 C 91.200 382.598,91.408 382.800,92.200 382.800 C 93.000 382.800,93.200 383.000,93.200 383.800 C 93.200 384.600,93.400 384.800,94.200 384.800 C 95.000 384.800,95.200 385.000,95.200 385.800 C 95.200 386.733,95.333 386.800,97.200 386.800 C 99.067 386.800,99.200 386.867,99.200 387.800 C 99.200 388.600,99.400 388.800,100.200 388.800 C 101.000 388.800,101.200 389.000,101.200 389.800 C 101.200 390.595,101.401 390.800,102.182 390.800 C 102.722 390.800,103.614 391.250,104.164 391.800 C 104.846 392.483,105.604 392.800,106.553 392.800 C 107.558 392.800,108.159 393.076,108.729 393.800 C 109.363 394.607,109.869 394.800,111.350 394.800 C 112.967 394.800,113.214 394.917,113.432 395.787 C 113.569 396.329,113.797 396.758,113.940 396.739 C 116.640 396.386,119.461 396.876,119.432 397.693 C 119.397 398.683,119.334 398.669,124.200 398.750 C 126.578 398.790,127.200 398.924,127.200 399.400 C 127.200 399.924,129.400 400.000,144.600 400.000 C 159.800 400.000,162.000 399.924,162.000 399.400 C 162.000 398.948,162.485 398.800,163.969 398.800 C 165.486 398.800,166.212 398.570,167.127 397.800 C 168.113 396.970,168.735 396.800,170.777 396.800 C 172.870 396.800,173.373 396.655,174.140 395.827 C 174.780 395.136,175.558 394.817,176.821 394.727 C 178.315 394.620,178.620 394.456,178.728 393.700 C 178.830 392.979,179.128 392.790,180.228 392.750 C 182.434 392.670,182.597 392.626,182.650 392.100 C 182.678 391.825,182.722 391.420,182.750 391.200 C 182.778 390.980,183.417 390.800,184.171 390.800 C 185.473 390.800,186.800 389.978,186.800 389.171 C 186.800 388.967,187.250 388.800,187.800 388.800 C 188.594 388.800,188.800 388.599,188.800 387.822 C 188.800 386.939,188.985 386.832,190.700 386.722 C 192.321 386.618,192.619 386.468,192.728 385.700 C 192.820 385.049,193.124 384.800,193.828 384.800 C 194.598 384.800,194.800 384.592,194.800 383.800 C 194.800 383.000,195.000 382.800,195.800 382.800 C 196.600 382.800,196.800 382.600,196.800 381.800 C 196.800 381.000,197.000 380.800,197.800 380.800 C 198.600 380.800,198.800 380.600,198.800 379.800 C 198.800 379.000,199.000 378.800,199.800 378.800 C 200.600 378.800,200.800 378.600,200.800 377.800 C 200.800 376.841,201.147 376.614,202.354 376.783 C 202.702 376.831,202.820 376.630,202.671 376.242 C 202.364 375.441,203.441 374.364,204.242 374.671 C 204.630 374.820,204.831 374.702,204.783 374.354 C 204.623 373.211,204.825 372.852,205.700 372.728 C 206.244 372.651,206.646 372.279,206.716 371.788 C 206.780 371.341,207.230 370.801,207.716 370.588 C 208.393 370.291,208.629 369.802,208.723 368.500 C 208.832 366.998,208.960 366.800,209.823 366.800 C 210.729 366.800,210.800 366.654,210.800 364.800 C 210.800 362.933,210.867 362.800,211.800 362.800 C 212.600 362.800,212.800 362.600,212.800 361.800 C 212.800 361.250,212.980 360.778,213.200 360.750 C 213.420 360.723,213.825 360.678,214.100 360.650 C 214.626 360.597,214.670 360.434,214.750 358.228 C 214.790 357.128,214.979 356.830,215.700 356.728 C 216.466 356.619,216.618 356.321,216.721 354.725 C 216.823 353.144,216.979 352.831,217.721 352.725 C 218.521 352.611,218.611 352.340,218.718 349.700 C 218.782 348.105,219.007 346.778,219.218 346.750 C 219.428 346.723,219.825 346.678,220.100 346.650 C 220.433 346.617,220.644 345.667,220.733 343.800 C 220.806 342.260,221.034 340.939,221.240 340.864 C 222.597 340.372,222.800 339.514,222.800 334.266 C 222.800 329.178,222.832 328.976,223.700 328.595 L 224.600 328.200 224.702 276.500 L 224.803 224.800 233.102 224.790 C 237.666 224.784,260.619 224.789,284.109 224.800 L 326.817 224.819 327.800 223.836 C 328.721 222.916,329.096 222.845,333.692 222.727 C 337.250 222.635,338.614 222.462,338.650 222.100 C 338.678 221.825,338.723 221.427,338.750 221.215 C 338.778 221.003,340.465 220.778,342.500 220.715 C 345.878 220.610,346.234 220.523,346.588 219.716 C 346.927 218.942,347.329 218.817,349.788 218.716 C 352.358 218.610,352.611 218.523,352.728 217.700 C 352.830 216.979,353.128 216.790,354.228 216.750 C 356.428 216.670,356.518 216.637,356.632 215.863 C 356.777 214.876,356.818 214.851,358.442 214.741 C 359.715 214.656,361.173 213.743,360.888 213.210 C 360.826 213.094,361.231 212.943,361.788 212.873 C 362.559 212.777,362.800 212.515,362.800 211.773 C 362.800 210.872,362.948 210.800,364.800 210.800 C 366.641 210.800,366.800 210.724,366.800 209.847 C 366.800 209.218,367.083 208.819,367.630 208.676 C 368.086 208.557,368.557 208.086,368.676 207.630 C 368.822 207.072,369.238 206.786,369.947 206.757 C 372.493 206.655,372.600 206.611,372.568 205.700 C 372.543 204.971,372.752 204.800,373.668 204.800 C 374.609 204.800,374.800 204.631,374.800 203.800 C 374.800 203.000,375.000 202.800,375.800 202.800 C 376.600 202.800,376.800 202.600,376.800 201.800 C 376.800 200.885,377.318 200.566,378.500 200.753 C 378.665 200.779,378.779 200.665,378.753 200.500 C 378.587 199.452,378.915 198.839,379.700 198.728 C 380.278 198.646,380.646 198.278,380.728 197.700 C 380.798 197.205,381.036 196.800,381.256 196.800 C 381.775 196.800,382.800 195.774,382.800 195.256 C 382.800 195.035,383.143 194.745,383.563 194.612 C 386.741 193.603,383.300 191.789,379.892 192.677 M0.000 274.800 C 0.000 276.311,0.147 276.800,0.600 276.800 C 1.053 276.800,1.200 276.311,1.200 274.800 C 1.200 273.289,1.053 272.800,0.600 272.800 C 0.147 272.800,0.000 273.289,0.000 274.800 M1.700 280.265 C 1.128 280.496,1.010 282.400,1.567 282.400 C 1.769 282.400,2.219 282.509,2.567 282.643 C 3.072 282.837,3.200 282.594,3.200 281.443 C 3.200 280.035,2.884 279.787,1.700 280.265 M4.108 284.327 C 3.192 284.457,2.764 288.322,3.652 288.450 C 3.844 288.478,4.225 288.522,4.500 288.550 C 4.796 288.580,5.081 289.415,5.200 290.600 C 5.506 293.661,7.200 293.854,7.200 290.828 C 7.200 288.824,7.163 288.774,5.700 288.807 C 5.535 288.811,5.310 287.776,5.200 286.507 C 5.017 284.397,4.924 284.211,4.108 284.327 M8.565 293.500 C 8.811 293.935,8.406 294.164,7.560 294.067 C 6.791 293.980,7.516 296.236,8.400 296.681 C 8.950 296.959,9.352 297.437,9.294 297.744 C 9.187 298.304,10.556 298.910,10.977 298.490 C 11.546 297.921,11.133 296.846,10.300 296.728 C 9.593 296.627,9.372 296.299,9.271 295.200 C 9.201 294.430,8.949 293.620,8.713 293.400 C 8.418 293.125,8.371 293.157,8.565 293.500 M11.400 300.100 C 11.545 300.815,12.010 301.699,12.432 302.064 C 12.854 302.429,13.200 303.194,13.200 303.764 C 13.200 304.602,13.391 304.800,14.200 304.800 C 15.145 304.800,15.380 305.143,15.230 306.300 C 15.194 306.575,15.580 306.800,16.086 306.800 C 16.593 306.800,17.232 307.160,17.507 307.600 C 17.879 308.196,17.887 308.400,17.537 308.400 C 17.278 308.400,17.182 308.516,17.324 308.657 C 17.465 308.798,17.890 308.663,18.267 308.357 C 18.721 307.988,18.852 307.969,18.653 308.300 C 18.488 308.575,18.543 308.800,18.776 308.800 C 19.009 308.800,19.200 308.350,19.200 307.800 C 19.200 307.000,19.000 306.800,18.200 306.800 C 17.400 306.800,17.200 306.600,17.200 305.800 C 17.200 305.000,17.000 304.800,16.200 304.800 C 15.328 304.800,15.200 304.625,15.200 303.428 C 15.200 302.309,15.034 302.032,14.300 301.928 C 13.577 301.825,13.376 301.505,13.276 300.300 C 13.168 298.996,13.020 298.800,12.144 298.800 C 11.220 298.800,11.158 298.908,11.400 300.100 M19.696 309.595 C 19.423 310.032,19.203 310.527,19.206 310.695 C 19.209 310.863,19.387 310.730,19.600 310.400 C 19.886 309.957,19.989 309.938,19.994 310.329 C 19.999 310.736,20.138 310.719,20.600 310.257 C 20.930 309.927,21.200 309.464,21.200 309.229 C 21.200 308.512,20.224 308.750,19.696 309.595 M21.467 311.067 C 20.941 311.592,21.216 312.000,22.100 312.006 C 22.845 312.011,22.897 312.085,22.400 312.437 C 21.867 312.814,21.867 312.843,22.400 312.699 C 23.340 312.446,23.421 310.800,22.494 310.800 C 22.076 310.800,21.613 310.920,21.467 311.067 M23.200 313.800 C 23.200 314.350,23.335 314.779,23.500 314.753 C 24.384 314.613,25.200 314.855,25.200 315.256 C 25.200 315.721,26.358 316.764,26.900 316.787 C 27.065 316.794,27.200 316.350,27.200 315.800 C 27.200 315.000,27.000 314.800,26.200 314.800 C 25.400 314.800,25.200 314.600,25.200 313.800 C 25.200 313.000,25.000 312.800,24.200 312.800 C 23.400 312.800,23.200 313.000,23.200 313.800 M27.329 317.440 C 27.081 318.088,27.907 318.905,28.463 318.561 C 28.629 318.458,29.054 318.815,29.406 319.354 C 30.348 320.790,31.200 320.996,31.200 319.787 C 31.200 319.070,30.983 318.800,30.408 318.800 C 29.896 318.800,29.526 318.446,29.364 317.800 C 29.078 316.659,27.721 316.420,27.329 317.440 M33.342 321.740 C 33.425 323.079,35.653 323.044,35.858 321.700 C 35.977 320.917,35.819 320.800,34.640 320.800 C 33.468 320.800,33.292 320.927,33.342 321.740 M37.292 323.800 C 37.353 324.540,37.604 324.800,38.259 324.800 C 38.745 324.800,39.413 325.070,39.743 325.400 C 40.073 325.730,40.581 326.013,40.871 326.028 C 41.162 326.044,41.040 326.222,40.600 326.425 C 39.930 326.733,39.918 326.777,40.521 326.697 C 40.918 326.643,41.248 326.420,41.255 326.200 C 41.262 325.980,41.455 325.575,41.683 325.300 C 42.002 324.916,41.763 324.800,40.649 324.800 C 39.370 324.800,39.200 324.683,39.200 323.800 C 39.200 323.001,39.000 322.800,38.204 322.800 C 37.387 322.800,37.224 322.979,37.292 323.800 M43.200 327.210 C 43.200 327.411,43.425 327.492,43.700 327.392 C 44.585 327.067,45.521 327.920,44.800 328.394 C 44.447 328.626,44.394 328.790,44.671 328.794 C 44.931 328.797,45.419 328.524,45.757 328.186 C 46.095 327.848,46.508 327.591,46.676 327.616 C 46.843 327.640,47.034 327.497,47.101 327.298 C 47.167 327.100,46.316 326.916,45.211 326.891 C 44.105 326.866,43.200 327.009,43.200 327.210 M49.300 329.800 C 49.300 330.741,49.426 330.800,51.417 330.800 C 54.128 330.800,54.764 330.548,54.509 329.574 C 54.156 328.223,49.300 328.433,49.300 329.800 " stroke="none" fill="#6bdec1" fill-rule="evenodd"></path><path id="path3" d="M328.800 68.032 C 327.207 68.431,156.513 68.528,152.256 68.132 C 149.498 67.876,136.044 68.525,129.573 69.227 C 126.111 69.602,123.052 70.396,121.176 71.405 C 120.613 71.707,118.723 72.334,116.976 72.797 C 113.138 73.813,107.821 76.360,104.719 78.668 C 101.728 80.892,99.509 82.000,98.043 82.000 C 97.151 82.000,96.791 82.225,96.604 82.900 C 96.115 84.660,95.073 86.800,94.705 86.800 C 94.500 86.800,92.282 88.861,89.777 91.381 C 86.336 94.840,84.827 96.080,83.611 96.444 C 82.136 96.886,82.000 97.043,82.000 98.302 C 82.000 99.750,81.184 101.531,79.757 103.200 C 77.175 106.219,73.180 114.297,72.632 117.607 C 72.503 118.381,72.061 119.644,71.649 120.414 C 68.381 126.510,68.356 127.393,68.379 234.200 C 68.391 289.771,68.251 328.026,68.031 328.949 C 67.613 330.705,68.153 332.400,69.131 332.400 C 69.462 332.400,69.616 332.283,69.473 332.139 C 69.329 331.996,69.683 331.634,70.259 331.336 C 71.275 330.808,72.338 331.382,72.387 332.485 C 72.410 332.996,75.419 333.596,77.230 333.452 C 78.902 333.318,80.038 333.147,88.457 331.767 C 90.359 331.455,92.666 331.200,93.585 331.200 C 94.521 331.200,96.518 330.680,98.128 330.018 C 99.708 329.367,102.226 328.533,103.725 328.163 C 105.224 327.793,107.077 327.065,107.843 326.545 C 108.609 326.025,109.387 325.600,109.571 325.600 C 110.099 325.600,116.524 322.354,117.268 321.711 C 117.635 321.394,119.033 320.615,120.375 319.981 C 121.717 319.346,122.925 318.539,123.060 318.187 C 123.195 317.835,124.299 316.987,125.513 316.302 C 126.727 315.616,128.008 314.550,128.360 313.931 C 128.712 313.312,129.153 312.804,129.339 312.803 C 129.927 312.798,135.251 307.453,135.886 306.229 C 136.221 305.584,137.058 304.504,137.747 303.829 C 140.676 300.956,144.781 295.069,144.795 293.721 C 144.798 293.457,145.250 292.756,145.800 292.162 C 146.350 291.569,146.800 290.775,146.800 290.397 C 146.800 290.020,147.250 289.049,147.800 288.238 C 148.350 287.428,148.800 286.588,148.800 286.371 C 148.800 286.155,149.434 284.768,150.209 283.288 C 151.340 281.130,151.726 279.773,152.158 276.431 C 152.497 273.813,152.912 272.103,153.272 271.832 C 154.741 270.728,154.885 265.230,154.823 212.400 C 154.762 159.278,154.798 158.002,156.437 156.363 C 157.164 155.636,158.936 155.607,209.694 155.471 C 265.008 155.324,269.025 155.194,272.323 153.448 C 272.915 153.134,274.857 152.587,276.637 152.233 C 280.246 151.514,286.162 149.262,288.353 147.773 C 289.141 147.238,290.042 146.800,290.355 146.800 C 290.668 146.800,291.481 146.379,292.162 145.865 C 292.843 145.350,294.248 144.609,295.285 144.216 C 296.321 143.824,297.851 142.923,298.685 142.214 C 299.518 141.504,300.960 140.447,301.889 139.864 C 302.817 139.281,303.847 138.283,304.176 137.646 C 304.506 137.008,305.276 136.306,305.888 136.086 C 307.090 135.653,312.798 130.168,312.803 129.442 C 312.804 129.199,313.312 128.712,313.931 128.360 C 314.550 128.008,315.616 126.727,316.302 125.513 C 316.987 124.299,317.835 123.195,318.187 123.060 C 318.539 122.925,319.346 121.717,319.981 120.375 C 320.615 119.033,321.412 117.628,321.752 117.253 C 322.092 116.878,322.731 115.767,323.174 114.785 C 323.616 113.803,324.342 112.460,324.786 111.800 C 325.231 111.140,325.596 110.356,325.597 110.058 C 325.599 109.760,326.026 109.009,326.547 108.390 C 327.225 107.585,327.689 106.181,328.180 103.454 C 328.557 101.358,329.097 99.451,329.379 99.217 C 329.662 98.983,330.108 97.668,330.370 96.296 C 330.633 94.923,331.013 93.170,331.215 92.400 C 331.417 91.630,331.656 90.010,331.747 88.800 C 331.838 87.590,332.017 86.330,332.146 86.000 C 332.493 85.108,333.600 77.268,333.600 75.703 C 333.600 74.235,333.115 73.105,331.948 71.852 C 331.275 71.129,331.261 70.967,331.802 70.141 C 333.223 67.972,332.123 67.200,328.800 68.032 " stroke="none" fill="#04cba3" fill-rule="evenodd"></path><path id="path4" d="M59.200 0.600 C 59.200 1.094,58.480 1.200,55.120 1.200 C 52.105 1.200,51.157 1.317,51.489 1.649 C 52.206 2.366,51.613 3.200,50.386 3.200 C 49.659 3.200,48.978 3.556,48.471 4.200 C 47.983 4.821,47.280 5.200,46.616 5.200 C 45.237 5.200,44.000 5.869,44.000 6.614 C 44.000 7.064,43.441 7.200,41.600 7.200 C 39.307 7.200,39.200 7.244,39.200 8.200 C 39.200 9.072,39.024 9.200,37.833 9.200 C 35.973 9.200,35.200 9.551,35.200 10.396 C 35.200 10.787,34.827 11.204,34.370 11.324 C 33.914 11.443,33.446 11.904,33.330 12.348 C 33.213 12.792,32.732 13.210,32.259 13.278 C 31.728 13.353,31.352 13.736,31.275 14.279 C 31.169 15.021,30.856 15.177,29.275 15.279 C 27.679 15.382,27.381 15.534,27.272 16.300 C 27.180 16.951,26.876 17.200,26.172 17.200 C 25.585 17.200,25.200 17.432,25.200 17.786 C 25.200 18.108,24.855 18.557,24.433 18.783 C 24.010 19.009,23.546 19.735,23.401 20.397 C 23.249 21.088,22.879 21.600,22.531 21.600 C 22.198 21.600,21.836 21.941,21.727 22.357 C 21.612 22.798,21.043 23.211,20.365 23.347 C 19.539 23.512,19.200 23.815,19.200 24.390 C 19.200 24.987,18.937 25.200,18.200 25.200 C 17.400 25.200,17.200 25.400,17.200 26.200 C 17.200 27.000,17.000 27.200,16.200 27.200 C 15.269 27.200,15.200 27.335,15.200 29.172 C 15.200 30.913,15.094 31.159,14.300 31.272 C 13.737 31.352,13.354 31.721,13.278 32.259 C 13.210 32.732,12.792 33.213,12.348 33.330 C 11.904 33.446,11.443 33.914,11.324 34.370 C 11.204 34.827,10.961 35.200,10.782 35.200 C 10.018 35.200,9.200 36.559,9.200 37.829 C 9.200 39.025,9.072 39.200,8.200 39.200 C 7.253 39.200,7.200 39.318,7.200 41.437 C 7.200 43.302,7.073 43.708,6.437 43.874 C 5.651 44.080,5.215 45.095,5.205 46.742 C 5.202 47.266,4.756 48.034,4.200 48.471 C 3.537 48.993,3.200 49.656,3.200 50.437 C 3.200 51.476,3.081 51.594,2.200 51.434 L 1.200 51.253 1.200 55.226 C 1.200 58.492,1.093 59.200,0.600 59.200 C 0.133 59.200,0.000 59.733,0.000 61.600 C 0.000 63.372,0.144 64.000,0.551 64.000 C 1.602 64.000,2.037 62.853,2.847 57.939 C 3.424 54.441,3.933 52.592,4.591 51.600 C 5.102 50.830,5.649 49.750,5.807 49.200 C 5.965 48.650,6.370 47.886,6.707 47.502 C 7.094 47.062,7.392 45.684,7.514 43.772 C 7.687 41.077,7.810 40.700,8.617 40.394 C 9.921 39.898,13.486 35.333,13.776 33.788 C 13.919 33.023,14.433 32.208,15.011 31.830 C 15.555 31.473,16.000 30.917,16.000 30.595 C 16.000 29.819,29.807 16.000,30.581 16.000 C 30.911 16.000,31.473 15.555,31.830 15.011 C 32.197 14.450,33.024 13.917,33.739 13.781 C 35.275 13.488,39.905 9.901,40.389 8.629 C 40.702 7.806,41.063 7.688,43.810 7.512 C 45.500 7.404,47.006 7.114,47.157 6.869 C 47.309 6.624,48.226 6.144,49.196 5.801 C 50.167 5.459,51.253 4.914,51.610 4.591 C 52.379 3.895,57.914 2.417,59.964 2.360 C 64.013 2.248,65.407 0.000,61.428 0.000 C 59.714 0.000,59.200 0.138,59.200 0.600 M268.875 0.695 C 269.005 1.370,270.474 1.905,276.200 3.366 C 277.300 3.646,278.920 4.248,279.800 4.704 C 280.680 5.159,282.210 5.655,283.200 5.804 C 284.190 5.954,285.392 6.325,285.872 6.629 C 286.351 6.933,287.521 7.298,288.472 7.441 C 289.422 7.584,290.560 8.042,291.000 8.459 C 292.742 10.112,294.948 11.600,295.655 11.600 C 296.065 11.600,296.400 11.778,296.400 11.995 C 296.400 12.212,297.165 12.869,298.100 13.455 C 299.035 14.040,299.909 14.686,300.042 14.890 C 300.176 15.094,301.034 15.361,301.949 15.484 C 303.378 15.676,303.709 15.911,304.293 17.154 C 304.667 17.949,305.384 18.928,305.887 19.329 C 306.389 19.730,306.800 20.315,306.800 20.629 C 306.800 20.943,307.042 21.200,307.337 21.200 C 308.092 21.200,312.225 25.220,312.562 26.281 C 312.716 26.764,313.191 27.270,313.620 27.406 C 314.048 27.542,314.508 28.091,314.642 28.627 C 314.777 29.162,315.143 29.600,315.456 29.600 C 315.769 29.600,316.144 29.915,316.290 30.300 C 316.587 31.084,319.493 34.000,319.977 34.000 C 320.148 34.000,320.398 34.924,320.532 36.054 C 320.698 37.459,321.027 38.283,321.572 38.665 C 322.010 38.972,322.483 39.835,322.623 40.584 C 322.764 41.332,323.113 42.034,323.399 42.144 C 323.685 42.254,324.141 43.032,324.413 43.872 C 324.684 44.712,325.250 45.729,325.669 46.131 C 326.089 46.532,326.534 47.369,326.658 47.989 C 326.808 48.741,327.103 49.084,327.542 49.017 C 328.032 48.943,328.261 49.337,328.440 50.559 C 328.606 51.696,328.684 51.157,328.694 48.800 C 328.701 46.930,328.625 45.715,328.524 46.100 C 327.984 48.168,326.800 46.800,326.794 44.100 C 326.790 42.554,326.649 41.619,326.462 41.914 C 325.919 42.770,324.800 42.021,324.800 40.801 C 324.800 39.946,324.567 39.628,323.800 39.436 C 323.172 39.278,322.800 38.902,322.800 38.425 C 322.800 37.136,322.348 36.400,321.557 36.400 C 320.900 36.400,320.800 36.089,320.800 34.032 C 320.800 31.726,320.769 31.657,319.600 31.400 C 318.775 31.219,318.400 30.897,318.400 30.368 C 318.400 29.884,318.123 29.600,317.650 29.600 C 317.137 29.600,316.824 29.221,316.660 28.400 C 316.488 27.541,316.190 27.200,315.610 27.200 C 315.013 27.200,314.800 26.937,314.800 26.200 C 314.800 25.650,314.665 25.221,314.500 25.247 C 313.318 25.434,312.800 25.115,312.800 24.200 C 312.800 23.285,312.282 22.966,311.100 23.153 C 310.935 23.179,310.800 22.750,310.800 22.200 C 310.800 21.400,310.600 21.200,309.800 21.200 C 309.000 21.200,308.800 21.000,308.800 20.200 C 308.800 19.400,308.600 19.200,307.800 19.200 C 307.000 19.200,306.800 19.000,306.800 18.200 C 306.800 17.400,306.600 17.200,305.800 17.200 C 305.000 17.200,304.800 17.000,304.800 16.200 C 304.800 15.356,304.613 15.200,303.600 15.200 C 302.864 15.200,302.400 14.993,302.400 14.664 C 302.400 14.056,300.752 13.200,299.581 13.200 C 299.015 13.200,298.800 12.925,298.800 12.200 C 298.800 11.408,298.598 11.200,297.828 11.200 C 297.124 11.200,296.820 10.951,296.728 10.300 C 296.625 9.577,296.305 9.376,295.100 9.276 C 293.684 9.159,293.417 8.883,293.570 7.700 C 293.616 7.348,292.920 7.200,291.218 7.200 C 289.888 7.200,288.778 7.020,288.750 6.800 C 288.723 6.580,288.678 6.175,288.650 5.900 C 288.618 5.579,287.774 5.357,286.300 5.280 C 285.035 5.214,284.000 5.002,284.000 4.809 C 284.000 4.011,282.652 3.200,281.328 3.200 C 280.019 3.200,279.932 3.125,280.164 2.200 L 280.415 1.200 276.408 1.200 C 273.112 1.200,272.400 1.093,272.400 0.600 C 272.400 0.154,271.930 0.000,270.571 0.000 C 269.049 0.000,268.764 0.117,268.875 0.695 M330.019 53.980 C 329.700 54.182,329.295 54.258,329.119 54.150 C 328.944 54.042,328.800 54.640,328.800 55.480 C 328.800 56.558,329.028 57.150,329.575 57.492 C 330.056 57.792,330.410 58.549,330.508 59.488 C 330.595 60.320,330.696 59.335,330.733 57.300 C 330.770 55.265,330.755 53.603,330.700 53.606 C 330.645 53.609,330.339 53.778,330.019 53.980 M330.800 62.156 C 330.800 62.681,330.485 63.492,330.100 63.957 L 329.400 64.803 233.200 64.945 C 132.023 65.095,133.675 65.066,126.800 66.772 C 125.810 67.017,124.229 67.395,123.287 67.611 C 122.345 67.827,120.042 68.718,118.170 69.592 C 116.297 70.465,113.853 71.450,112.738 71.781 C 110.643 72.403,105.583 75.016,101.400 77.636 C 100.080 78.463,98.500 79.264,97.890 79.416 C 97.158 79.598,96.438 80.275,95.775 81.406 C 95.223 82.349,94.372 83.222,93.885 83.345 C 92.699 83.645,83.883 92.351,83.268 93.830 C 83.001 94.474,82.090 95.396,81.245 95.881 C 80.214 96.472,79.632 97.130,79.477 97.881 C 79.350 98.496,78.540 100.080,77.677 101.400 C 75.106 105.334,72.951 109.584,71.662 113.264 C 70.994 115.169,69.922 117.779,69.278 119.064 C 68.635 120.349,67.889 122.390,67.621 123.600 C 67.353 124.810,66.948 126.430,66.720 127.200 C 65.106 132.674,65.095 133.305,64.842 233.585 L 64.600 329.769 63.600 330.263 C 63.050 330.534,62.288 330.849,61.907 330.963 C 60.588 331.356,61.573 332.400,63.263 332.400 C 65.148 332.400,66.985 331.527,67.688 330.296 C 68.099 329.576,68.213 311.009,68.265 235.800 C 68.340 127.787,68.377 126.518,71.649 120.414 C 72.061 119.644,72.503 118.381,72.632 117.607 C 73.180 114.297,77.175 106.219,79.757 103.200 C 81.184 101.531,82.000 99.750,82.000 98.302 C 82.000 97.043,82.136 96.886,83.611 96.444 C 84.827 96.080,86.336 94.840,89.777 91.381 C 92.282 88.861,94.500 86.800,94.705 86.800 C 95.073 86.800,96.115 84.660,96.604 82.900 C 96.791 82.225,97.151 82.000,98.043 82.000 C 99.509 82.000,101.728 80.892,104.719 78.668 C 107.821 76.360,113.138 73.813,116.976 72.797 C 118.723 72.334,120.613 71.707,121.176 71.405 C 123.052 70.396,126.111 69.602,129.573 69.227 C 136.043 68.525,149.498 67.876,152.256 68.132 C 157.428 68.613,326.856 68.465,329.128 67.978 C 331.520 67.465,331.945 66.914,332.372 63.765 C 332.598 62.101,332.538 61.585,332.098 61.416 C 331.082 61.026,330.800 61.187,330.800 62.156 M0.000 270.600 C 0.000 272.289,0.139 272.800,0.600 272.800 C 1.116 272.800,1.579 278.051,1.245 280.108 C 1.217 280.278,1.646 280.303,2.197 280.165 C 3.180 279.918,3.200 279.959,3.200 282.203 C 3.200 284.430,3.228 284.488,4.200 284.302 C 5.171 284.116,5.200 284.176,5.200 286.370 C 5.200 288.383,5.292 288.637,6.045 288.693 C 7.188 288.780,7.142 288.656,7.236 291.876 C 7.313 294.509,7.375 294.697,8.034 294.286 C 8.427 294.041,8.643 293.651,8.515 293.420 C 8.359 293.138,8.424 293.132,8.713 293.400 C 8.949 293.620,9.201 294.430,9.271 295.200 C 9.374 296.319,9.589 296.627,10.340 296.733 C 11.096 296.840,11.244 297.056,11.096 297.833 C 10.936 298.669,11.062 298.800,12.031 298.800 C 13.037 298.800,13.164 298.953,13.276 300.300 C 13.376 301.505,13.577 301.825,14.300 301.928 C 15.034 302.032,15.200 302.309,15.200 303.428 C 15.200 304.625,15.328 304.800,16.200 304.800 C 17.000 304.800,17.200 305.000,17.200 305.800 C 17.200 306.600,17.400 306.800,18.200 306.800 C 19.088 306.800,19.201 306.968,19.206 308.300 C 19.209 309.125,19.387 310.070,19.600 310.400 C 19.886 310.843,19.989 310.862,19.994 310.471 C 19.999 310.055,20.123 310.066,20.577 310.520 C 20.913 310.856,21.582 311.016,22.177 310.902 C 22.995 310.746,23.200 310.865,23.200 311.498 C 23.200 312.143,22.996 312.252,22.100 312.090 C 21.481 311.978,21.143 312.043,21.328 312.240 C 21.676 312.610,21.843 312.643,23.900 312.739 C 25.004 312.791,25.200 312.951,25.200 313.800 C 25.200 314.600,25.400 314.800,26.200 314.800 C 27.034 314.800,27.200 314.990,27.200 315.945 C 27.200 316.933,27.329 317.064,28.147 316.908 C 28.904 316.763,29.147 316.935,29.355 317.763 C 29.526 318.442,29.889 318.800,30.408 318.800 C 30.986 318.800,31.200 319.070,31.200 319.800 C 31.200 320.758,31.297 320.797,33.500 320.740 C 34.765 320.707,35.305 320.605,34.700 320.513 C 33.931 320.397,33.600 320.111,33.600 319.564 C 33.600 319.096,33.197 318.627,32.600 318.400 C 32.050 318.191,31.600 317.741,31.600 317.400 C 31.600 317.059,31.150 316.609,30.600 316.400 C 30.050 316.191,29.600 315.745,29.600 315.410 C 29.600 315.074,29.280 314.800,28.889 314.800 C 28.498 314.800,27.727 314.305,27.175 313.700 C 26.624 313.095,25.504 312.011,24.686 311.290 C 23.869 310.570,23.200 309.801,23.200 309.580 C 23.200 309.360,22.750 309.009,22.200 308.800 C 21.588 308.567,21.200 308.106,21.200 307.610 C 21.200 307.055,20.937 306.800,20.363 306.800 C 19.857 306.800,19.441 306.478,19.313 305.987 C 19.191 305.522,18.353 304.834,17.350 304.377 C 15.854 303.696,15.600 303.407,15.600 302.390 C 15.600 301.736,15.258 300.858,14.841 300.441 C 14.423 300.023,13.847 299.033,13.560 298.241 C 13.274 297.448,12.796 296.800,12.499 296.800 C 12.202 296.800,11.770 296.260,11.540 295.600 C 11.310 294.940,10.956 294.400,10.754 294.400 C 10.552 294.400,10.075 293.725,9.694 292.900 C 9.312 292.075,8.711 291.183,8.357 290.917 C 8.003 290.651,7.597 289.585,7.455 288.546 C 7.312 287.508,6.938 286.373,6.622 286.024 C 6.306 285.676,5.872 284.296,5.656 282.958 C 5.441 281.620,4.891 279.912,4.434 279.163 C 3.977 278.413,3.602 277.479,3.601 277.087 C 3.601 276.695,3.256 275.345,2.836 274.087 C 2.416 272.829,1.869 271.035,1.621 270.100 C 0.940 267.537,0.000 267.827,0.000 270.600 M21.200 309.375 C 21.200 309.693,20.861 309.925,20.444 309.893 C 20.002 309.860,19.771 309.621,19.887 309.318 C 20.157 308.614,21.200 308.659,21.200 309.375 M35.969 321.100 C 35.953 321.265,35.878 321.715,35.805 322.100 C 35.694 322.681,35.970 322.800,37.435 322.800 C 39.051 322.800,39.200 322.884,39.200 323.800 C 39.200 324.687,39.370 324.802,40.700 324.813 L 42.200 324.827 41.200 325.680 C 40.620 326.175,40.483 326.430,40.874 326.289 C 41.245 326.155,41.605 326.214,41.674 326.420 C 41.743 326.626,43.019 326.828,44.509 326.869 C 46.000 326.910,47.165 327.105,47.099 327.302 C 47.034 327.499,46.825 327.631,46.635 327.596 C 46.445 327.561,46.151 327.756,45.981 328.031 C 45.744 328.414,45.518 328.375,45.008 327.865 C 44.067 326.924,43.728 327.036,44.600 328.000 C 45.746 329.266,48.643 329.131,48.898 327.800 C 49.059 326.957,48.938 326.800,48.126 326.800 C 47.597 326.800,46.714 326.350,46.164 325.800 C 45.614 325.250,44.910 324.800,44.601 324.800 C 43.615 324.800,42.000 323.891,42.000 323.336 C 42.000 323.028,41.566 322.800,40.982 322.800 C 40.422 322.800,39.514 322.350,38.964 321.800 C 38.039 320.876,36.040 320.408,35.969 321.100 M50.100 328.687 C 50.705 328.778,51.695 328.778,52.300 328.687 C 52.905 328.595,52.410 328.520,51.200 328.520 C 49.990 328.520,49.495 328.595,50.100 328.687 M54.511 329.581 C 54.623 330.010,54.509 330.446,54.258 330.549 C 54.006 330.652,55.510 330.729,57.600 330.718 C 60.513 330.704,60.992 330.634,59.653 330.417 C 58.674 330.258,57.743 329.841,57.533 329.467 C 56.955 328.433,54.237 328.535,54.511 329.581 " stroke="none" fill="#0a9dcc" fill-rule="evenodd"></path></g></svg>